<?xml version="1.0" encoding="UTF-8"?>
<svg enable-background="new 0 0 152.5 27.3" version="1.1" viewBox="0 0 152.5 27.3" xml:space="preserve" xmlns="http://www.w3.org/2000/svg" xmlns:xlink="http://www.w3.org/1999/xlink">
<style type="text/css">
	.st2{clip-path:url(#a);fill:#48B9BA;}
</style>
<defs>
	<rect id="b" width="152.1" height="27.3"/>
</defs>
<clipPath id="a">
	<use xlink:href="#b"/>
</clipPath>
<path class="st2" d="m145.2 0c2.4 0 4.2 0.7 5.3 2.1s1.6 3.7 1.6 6.9v9.3c0 3.2-0.5 5.5-1.6 6.9s-2.9 2.1-5.3 2.1h-2.3c-2.4 0-4.2-0.7-5.3-2.1s-1.6-3.7-1.6-6.9v-9.2c0-3.2 0.5-5.5 1.6-6.9s2.9-2.1 5.3-2.1h2.3zm-0.3 2.6h-1.6c-1.7 0-2.8 0.4-3.5 1.3-0.6 0.9-0.9 2.6-0.9 5.1v9.3c0 2.6 0.3 4.3 0.9 5.1 0.6 0.9 1.8 1.3 3.5 1.3h1.6c1.7 0 2.8-0.4 3.5-1.3 0.6-0.9 0.9-2.6 0.9-5.1v-9.2c0-2.6-0.3-4.3-0.9-5.1-0.7-0.9-1.8-1.4-3.5-1.4m-29.4 24.4v-26.7h3.9l9.9 23.7v-23.7h2.6v26.7h-4l-9.7-23.3v23.3h-2.7zm-17-9c0 3 0.3 4.9 0.8 5.6s1.6 1.1 3.2 1.1h2.3c1.6 0 2.7-0.4 3.2-1.1s0.8-2.6 0.8-5.6v-1.7h-4.8v-2.6h7.5v5.2c0 1.7-0.1 3-0.3 3.9-0.2 0.8-0.5 1.6-0.9 2.2-0.5 0.7-1.2 1.3-2 1.7-0.9 0.4-1.9 0.6-3 0.6h-3.4c-1.1 0-2.2-0.2-3-0.6-0.9-0.4-1.6-1-2.1-1.7-0.4-0.6-0.7-1.4-0.9-2.2s-0.3-2.1-0.3-3.9v-9.9c0-3.2 0.5-5.5 1.6-6.9s2.9-2.1 5.3-2.1h2c2.4 0 4.1 0.6 5.2 1.7s1.6 3 1.6 5.6v0.9h-2.8c0-2.1-0.3-3.6-0.9-4.4s-1.6-1.2-3.1-1.2h-2c-1.5 0-2.6 0.4-3.1 1.3-0.6 0.9-0.9 2.6-0.9 5.1v9zm-9.7-17.7h2.6v26.7h-2.6v-26.7zm-4.1 17.4v3.8c0 2-0.5 3.4-1.6 4.4-1 0.9-2.6 1.4-4.8 1.4h-2.3c-2.4 0-4.1-0.5-5.1-1.6-0.9-1.1-1.4-3.1-1.4-6v-1.3h2.8v2.3c0 1.6 0.3 2.6 0.8 3.2s1.5 0.9 2.8 0.9h2.6c1.3 0 2.2-0.3 2.6-0.8 0.5-0.5 0.7-1.4 0.7-2.8v-2.3c0-0.7 0-1.2-0.1-1.6l-0.3-0.9c-0.4-0.7-1.9-1.3-4.5-1.7-0.5-0.1-1-0.1-1.3-0.2-0.1 0-0.2 0-0.4-0.1-1.7-0.3-2.8-0.6-3.3-0.9-0.7-0.4-1.2-1-1.5-1.7s-0.5-1.6-0.5-2.7v-3.3c0-2 0.5-3.4 1.6-4.4 1-0.9 2.6-1.4 4.8-1.4h1.9c2.3 0 4 0.5 5 1.6 1 1 1.5 2.8 1.5 5.3v0.8h-2.7v-1c0-1.6-0.3-2.6-0.8-3.2s-1.5-0.9-2.8-0.9h-2.2c-1.3 0-2.2 0.3-2.7 0.8s-0.7 1.4-0.7 2.8v2.8c0 1.5 1.2 2.4 3.7 2.7 0.6 0.1 1 0.1 1.3 0.2 2.8 0.5 4.6 1.1 5.5 1.9 1 0.9 1.4 2.2 1.4 3.9m-26.8 6.7v2.6h-11.9v-26.7h11.9v2.6h-9.3v8.9h8.6v2.6h-8.6v10h9.3zm-32 2.6v-26.7h6.7c3.4 0 5.8 0.7 7.2 2.1s2 3.9 2 7.6v7.3c0 3.6-0.7 6.1-2 7.5-1.4 1.4-3.8 2.1-7.2 2.1h-6.7zm2.7-2.5h3.5c1.6 0 2.8-0.1 3.7-0.4 0.9-0.2 1.6-0.6 2-1.2 0.5-0.6 0.8-1.2 1-2s0.3-2 0.3-3.7v-7.2c0-1.7-0.1-2.9-0.3-3.7s-0.5-1.5-1-2-1.2-0.9-2-1.2c-0.9-0.2-2.1-0.4-3.7-0.4h-3.5v21.8z"/>
<path class="st2" d="m13.7 15c0 0.1-0.1 0.2-0.3 0.3-1.6 1.2-3.3 2.9-5.1 5.1-1.6 1.9-2.8 3.8-3.6 5.5-0.1 0.1-0.2 0.1-0.3 0-0.4-0.3-1-0.7-1.9-1.1-0.4-0.2-1.3-0.5-2.5-0.8-0.1 0-0.1-0.2 0-0.4 0.4-0.9 1.1-2.3 2.1-4.2 1.2-2 2.6-3.4 4.1-4.1-1.4-0.7-2.5-1.7-3.2-3.2-0.3-1.1-1-2.7-2.1-4.8 0-0.2 0-0.3 0.2-0.4 1.9-0.7 3.6-1.3 5-1.9 0.2 2 1 3.8 2.4 5.4 0.9 1 2.6 2.5 5 4.2 0.2 0.2 0.2 0.3 0.2 0.4"/>
</svg>
